<svg width="16" height="16" viewBox="0 0 16 16" fill="none" xmlns="http://www.w3.org/2000/svg">
<g clip-path="url(#clip0_33528_1595)">
<path fill-rule="evenodd" clip-rule="evenodd" d="M7.34869 1.5941C7.57378 1.42002 7.88898 1.42002 8.11407 1.5941L13.7241 5.93264C13.8759 6.05006 13.9647 6.23061 13.9647 6.42187V13.2396C13.9647 13.7327 13.7677 14.2057 13.417 14.5544C13.0663 14.9031 12.5907 15.099 12.0947 15.099H3.36805C2.87209 15.099 2.39645 14.9031 2.04576 14.5544C1.69506 14.2057 1.49805 13.7327 1.49805 13.2396V6.42187C1.49805 6.23061 1.58685 6.05006 1.73869 5.93264L7.34869 1.5941ZM2.74471 6.725V13.2396C2.74471 13.404 2.81039 13.5616 2.92728 13.6778C3.04418 13.7941 3.20273 13.8594 3.36805 13.8594H12.0947C12.26 13.8594 12.4186 13.7941 12.5355 13.6778C12.6524 13.5616 12.718 13.404 12.718 13.2396V6.725L7.73138 2.86852L2.74471 6.725Z" fill="white"/>
<path fill-rule="evenodd" clip-rule="evenodd" d="M5.23805 8.28125C5.23805 7.93895 5.51712 7.66146 5.86138 7.66146H9.60138C9.94564 7.66146 10.2247 7.93895 10.2247 8.28125V14.4792C10.2247 14.8215 9.94564 15.099 9.60138 15.099C9.25712 15.099 8.97805 14.8215 8.97805 14.4792V8.90104H6.48471V14.4792C6.48471 14.8215 6.20564 15.099 5.86138 15.099C5.51712 15.099 5.23805 14.8215 5.23805 14.4792V8.28125Z" fill="white"/>
</g>
<defs>
<clipPath id="clip0_33528_1595">
<rect width="14.96" height="14.875" fill="white" transform="translate(0.251465 0.84375)"/>
</clipPath>
</defs>
</svg>
