<svg width="16" height="16" viewBox="0 0 16 16" fill="none" xmlns="http://www.w3.org/2000/svg">
<g clip-path="url(#clip0_33528_1588)">
<path d="M12.9924 14.912C12.9301 14.912 12.8678 14.912 12.8054 14.912C10.8108 14.6641 8.81609 13.9823 7.13309 12.9286C5.57476 11.937 4.20343 10.5734 3.20609 9.02396C2.08409 7.35052 1.39843 5.36719 1.21143 3.38385C1.21143 2.88802 1.33609 2.39219 1.64776 2.02031C1.95943 1.64844 2.39576 1.40052 2.89443 1.33854C2.95676 1.33854 3.01909 1.33854 3.08143 1.33854H4.95143C5.88643 1.33854 6.69676 2.02031 6.82143 2.95C6.88376 3.50781 7.00843 4.06562 7.19543 4.56146C7.44476 5.24323 7.25776 5.98698 6.75909 6.54479L6.32276 6.97865C7.07076 8.09427 8.00576 9.08594 9.19009 9.82969L9.62643 9.39583C10.1251 8.9 10.9354 8.71406 11.6211 8.96198C12.1198 9.14792 12.6808 9.27187 13.2418 9.33385C14.1768 9.45781 14.8624 10.2635 14.8624 11.1932V13.0526C14.8624 13.5484 14.6754 14.0443 14.3014 14.3542C13.9274 14.6641 13.4911 14.912 12.9924 14.912ZM4.95143 2.57812H3.08143C2.89443 2.57812 2.70743 2.70208 2.58276 2.82604C2.52043 2.95 2.45809 3.07396 2.45809 3.2599C2.64509 5.05729 3.26843 6.79271 4.26576 8.34219C5.20076 9.76771 6.38509 11.0073 7.81876 11.875C9.37709 12.8667 11.1224 13.4865 12.9301 13.6724C13.1794 13.6724 13.3041 13.6104 13.4288 13.4865C13.5534 13.3625 13.6158 13.2385 13.6158 13.0526V11.1932C13.6158 10.8833 13.3664 10.6354 13.0548 10.5734C12.4314 10.5115 11.8081 10.3255 11.1848 10.0776C10.9354 10.0156 10.6861 10.0156 10.4991 10.2016L9.68876 11.0073C9.50176 11.1932 9.19009 11.2552 8.94076 11.1312C7.25776 10.2016 5.88643 8.83802 4.95143 7.16458C4.88909 6.91667 4.95143 6.60677 5.13843 6.42083L5.94876 5.6151C6.07343 5.49115 6.13576 5.18125 6.07343 4.99531C5.82409 4.37552 5.69943 3.75573 5.57476 3.13594C5.57476 2.82604 5.26309 2.57812 4.95143 2.57812ZM12.3691 6.91667C12.0574 6.91667 11.8081 6.73073 11.7458 6.42083C11.5588 5.42917 10.7484 4.68542 9.75109 4.4375C9.43943 4.37552 9.19009 4.06562 9.25243 3.69375C9.31476 3.38385 9.62643 3.13594 10.0004 3.19792C11.4964 3.50781 12.6808 4.62344 12.9301 6.11094C12.9924 6.42083 12.8054 6.79271 12.4314 6.85469C12.4314 6.85469 12.4314 6.91667 12.3691 6.91667ZM14.8624 6.85469C14.5508 6.85469 14.3014 6.60677 14.2391 6.29687C13.9898 4.00365 12.1821 2.20625 9.81343 1.89635C9.50176 1.83437 9.25243 1.52448 9.25243 1.21458C9.25243 0.904687 9.62643 0.656771 9.93809 0.656771C12.8678 0.966667 15.1118 3.19792 15.4234 6.11094C15.4858 6.42083 15.2364 6.73073 14.8624 6.79271C14.9248 6.85469 14.8624 6.85469 14.8624 6.85469Z" fill="white"/>
</g>
<defs>
<clipPath id="clip0_33528_1588">
<rect width="14.96" height="14.875" fill="white" transform="translate(0.525879 0.71875)"/>
</clipPath>
</defs>
</svg>
