<svg width="16" height="16" viewBox="0 0 16 16" fill="none" xmlns="http://www.w3.org/2000/svg">
<path fill-rule="evenodd" clip-rule="evenodd" d="M3.03443 9.991C3.61892 9.40983 4.41166 9.08334 5.23825 9.08334H10.2249C11.0515 9.08334 11.8442 9.40983 12.4287 9.991C13.0132 10.5722 13.3416 11.3604 13.3416 12.1823V13.4219C13.3416 13.7642 13.0625 14.0417 12.7182 14.0417C12.374 14.0417 12.0949 13.7642 12.0949 13.4219V12.1823C12.0949 11.6892 11.8979 11.2162 11.5472 10.8675C11.1965 10.5188 10.7209 10.3229 10.2249 10.3229H5.23825C4.74229 10.3229 4.26665 10.5188 3.91596 10.8675C3.56527 11.2162 3.36825 11.6892 3.36825 12.1823V13.4219C3.36825 13.7642 3.08917 14.0417 2.74492 14.0417C2.40066 14.0417 2.12158 13.7642 2.12158 13.4219V12.1823C2.12158 11.3604 2.44994 10.5722 3.03443 9.991Z" fill="white"/>
<path fill-rule="evenodd" clip-rule="evenodd" d="M7.73141 2.88542C6.69864 2.88542 5.86141 3.71789 5.86141 4.74479C5.86141 5.7717 6.69864 6.60417 7.73141 6.60417C8.76419 6.60417 9.60141 5.7717 9.60141 4.74479C9.60141 3.71789 8.76419 2.88542 7.73141 2.88542ZM4.61475 4.74479C4.61475 3.03329 6.01013 1.64584 7.73141 1.64584C9.4527 1.64584 10.8481 3.03329 10.8481 4.74479C10.8481 6.4563 9.4527 7.84375 7.73141 7.84375C6.01013 7.84375 4.61475 6.4563 4.61475 4.74479Z" fill="white"/>
</svg>
